<?xml version="1.0" standalone="no"?><!DOCTYPE svg PUBLIC "-//W3C//DTD SVG 1.1//EN" "http://www.w3.org/Graphics/SVG/1.1/DTD/svg11.dtd"><svg t="1628423532718" class="icon" viewBox="0 0 1024 1024" version="1.1" xmlns="http://www.w3.org/2000/svg" p-id="930" xmlns:xlink="http://www.w3.org/1999/xlink" width="200" height="200"><defs><style type="text/css"></style></defs><path d="M799.55500647 540.41426672L223.96100897 540.41426672c-15.68733289 0-28.41426672-12.71765835-28.41426673-28.41426672 0-15.69660755 12.72693383-28.41426672 28.41426673-28.41426672l575.5939975 0c15.68733289 0 28.41426672 12.7185021 28.41426673 28.41426672C827.9692732 527.69660755 815.24233935 540.41426672 799.55500647 540.41426672z" p-id="931"></path><path d="M799.55500647 305.1093343L223.96100897 305.1093343c-15.68733289 0-28.41426672-12.7185021-28.41426673-28.41426672s12.72693383-28.41426672 28.41426673-28.41426674l575.5939975 0c15.68733289 0 28.41426672 12.7185021 28.41426673 28.41426674S815.24233935 305.1093343 799.55500647 305.1093343z" p-id="932"></path><path d="M799.55500647 775.30013886L223.96100897 775.30013886c-15.68733289 0-28.41426672-12.71765835-28.41426673-28.41426673 0-15.69660755 12.72693383-28.41426672 28.41426673-28.41426672l575.5939975 0c15.68733289 0 28.41426672 12.71765835 28.41426673 28.41426672C827.9692732 762.58163675 815.24233935 775.30013886 799.55500647 775.30013886z" p-id="933"></path></svg>