<?xml version="1.0" standalone="no"?><!DOCTYPE svg PUBLIC "-//W3C//DTD SVG 1.1//EN" "http://www.w3.org/Graphics/SVG/1.1/DTD/svg11.dtd"><svg t="1628423501330" class="icon" viewBox="0 0 1024 1024" version="1.1" xmlns="http://www.w3.org/2000/svg" p-id="799" xmlns:xlink="http://www.w3.org/1999/xlink" width="200" height="200"><defs><style type="text/css"></style></defs><path d="M829.63255596 439.04445123L554.27858781 221.41618085c-23.70294928-18.77117157-60.89767813-18.74944569-84.57890152 0L194.36744404 439.04445123c-9.40731168 7.45198131-11.01502777 21.11756801-3.58477236 30.52487969s20.79167963 11.01502777 30.19899132 3.58477237L229.56339073 466.11491394 229.56339073 729.2589302c0 37.30335831 39.30214047 65.17767906 73.86803627 65.17767907l434.51786042 0c34.15310383 0 56.48732185-26.20142698 56.48732187-65.17767907L794.43660927 467.13603091l7.92995095 6.01807236c3.99756431 3.15025449 8.90761614 4.671067 13.62213492 4.671067 6.40913844 0 12.84000278-2.8243661 17.12000371-8.25583935C840.56068016 460.16201925 839.06159353 446.49643254 829.63255596 439.04445123zM490.27410698 750.98482322l0-120.44835089c0-5.99634647 10.86294651-8.99451971 21.72589302-8.99451972s21.72589302 2.99817324 21.72589302 8.99451972L533.72589302 750.98482322 490.27410698 750.98482322zM750.98482322 729.2589302c0 14.40426707-3.97583842 21.72589302-13.0355358 21.72589302L577.61219692 750.98482322c0-0.32588839-0.43451786-0.58659911-0.43451786-0.91248751l0-119.53586338c0-25.26721358-20.37888766-52.46803164-65.17767906-52.46803165s-65.17767906 27.20081806-65.17767906 52.46803165l0 119.53586339c0 0.32588839 0.58659911 0.58659911 0.58659911 0.9124875L303.431427 750.98482322C289.80929209 750.98482322 273.01517678 739.20938922 273.01517678 729.2589302L273.01517678 431.76627707l223.32045435-176.26217006c8.01685453-6.34396076 22.48629927-6.34396076 30.52487969-1e-8L750.98482322 432.78739404 750.98482322 729.2589302z" p-id="800"></path></svg>