<?xml version="1.0" standalone="no"?><!DOCTYPE svg PUBLIC "-//W3C//DTD SVG 1.1//EN" "http://www.w3.org/Graphics/SVG/1.1/DTD/svg11.dtd"><svg t="1628423587834" class="icon" viewBox="0 0 1024 1024" version="1.1" xmlns="http://www.w3.org/2000/svg" p-id="1196" xmlns:xlink="http://www.w3.org/1999/xlink" width="200" height="200"><defs><style type="text/css"></style></defs><path d="M512 142.859375c203.5546875 0 369.140625 165.5859375 369.140625 369.140625S715.5546875 881.140625 512 881.140625 142.859375 715.5546875 142.859375 512 308.4453125 142.859375 512 142.859375z m0 52.734375c-174.73535156 0-316.40625 141.67089844-316.40625 316.40625s141.67089844 316.40625 316.40625 316.40625 316.40625-141.67089844 316.40625-316.40625-141.67089844-316.40625-316.40625-316.40625z m26.3671875 290.0390625v237.3046875h-52.734375V485.6328125h52.734375z m-26.3671875-171.38671875a39.55078125 39.55078125 0 1 1 0 79.1015625 39.55078125 39.55078125 0 0 1 0-79.1015625z" p-id="1197"></path></svg>