<?xml version="1.0" standalone="no"?><!DOCTYPE svg PUBLIC "-//W3C//DTD SVG 1.1//EN" "http://www.w3.org/Graphics/SVG/1.1/DTD/svg11.dtd"><svg t="1628429127419" class="icon" viewBox="0 0 1024 1024" version="1.1" xmlns="http://www.w3.org/2000/svg" p-id="1217" xmlns:xlink="http://www.w3.org/1999/xlink" width="200" height="200"><defs><style type="text/css"></style></defs><path d="M512.00623501 323.88686529c-168.15390298 0-304.99406736 136.81522348-304.99406735 304.96912648 0 168.20378557 136.84016437 305.01900907 304.99406735 305.01900906 168.19131472 0 304.99406736-136.84016437 304.99406736-305.01900906C817.00030319 460.70208794 680.19755056 323.88686529 512.00623501 323.88686529L512.00623501 323.88686529zM512.00623501 887.07274533c-142.36465128 0-258.16687179-115.83963227-258.16687178-258.19181351 0-142.33970957 115.80222053-258.14193091 258.16687178-258.14193091s258.16687179 115.81469138 258.16687181 258.14193091C770.17310682 771.22064221 654.37088629 887.07274533 512.00623501 887.07274533L512.00623501 887.07274533zM817.00030319 136.93973047l0 126.83872348c0 25.02854351-10.62497214 46.78978381-31.65044513 64.67265967l-45.33072088 36.97540246c-4.3522479 3.55412796-9.60238092 5.28754477-14.80263135 5.28754477-6.78401944 0-13.53062796-2.95553842-18.14475888-8.61720144-8.16825889-10.02638259-6.67178421-24.77913135 3.34212754-32.92244935l44.9566018-36.66363684c13.23133237-11.26097424 14.80263135-21.82359292 14.80263135-28.70737839l0-126.86366436-140.98041184 0 0 144.39736286c0 12.91956757-10.48779519 23.40736277-23.40736277 23.40736275-12.9320376 0-23.41983279-10.48779519-23.41983279-23.40736275l0-144.39736286-134.63286411 0 0 144.39736286c0 12.91956757-10.4628543 23.40736277-23.40736276 23.40736275-12.91956757 0-23.41983279-10.48779519-23.41983279-23.40736275l0-144.39736286-147.06607654 0 0 126.83872348c0 5.71154645 6.2353125 21.74876944 14.70286616 28.62008321l45.04389615 36.76340122c10.02638259 8.16825889 11.52285727 22.92100845 3.34212752 32.92244934-8.14331799 10.03885264-22.89606674 11.54779815-32.94739022 3.36706842l-44.95660181-36.66363683c-20.01535264-16.17439993-32.02456421-45.75472175-32.02456421-64.99689615l0-126.83872348c0-25.80172256 21.00053211-46.82719555 46.82719555-46.82719555l516.35868531 0C795.99977109 90.11253492 817.00030319 111.16294962 817.00030319 136.93973047L817.00030319 136.93973047zM669.68481366 541.1251467l-91.26003131 0-30.51561868-93.75415632c-3.2548332-13.69274579-15.81275171-28.47043625-35.72833996-28.47043625-19.95299917 0-32.49844766 14.77769046-35.19210306 26.5998425l-31.07679649 95.62475007-95.62475006 0c-17.98264105 0-33.00974368 10.4628543-38.28481759 26.67466599-6.0856647 18.75581928 2.55647846 34.58104184 11.98427068 40.55447131l80.9717657 58.86134884-29.96691093 92.20779904c-6.48472466 13.63039316-4.82613135 32.17421201 11.0988556 43.73448102 6.72166681 4.90095566 14.64051352 7.49484503 22.85865499 7.49484504 10.5376778 0 18.38170103-4.28989526 22.09794681-6.62190162l81.15882523-58.96111321 76.04586914 55.12016133c2.99295017 2.61883108 13.95462881 11.21109165 28.63255407 11.21109165 7.65696368 0 14.96475-2.39435979 21.13770905-6.85884375 15.4261626-11.2235625 17.53369849-30.20385306 11.73485769-44.04624663l-30.34102999-93.38003724 75.43480875-54.90816009c12.19627112-7.25790371 22.40971243-24.09324665 15.92498776-44.04624665-5.46213345-16.72310769-20.72617823-27.08619681-40.97847299-27.08619681C669.75963715 541.1251467 669.7222254 541.1251467 669.68481366 541.1251467L669.68481366 541.1251467z" p-id="1218"></path></svg>