<?xml version="1.0" standalone="no"?><!DOCTYPE svg PUBLIC "-//W3C//DTD SVG 1.1//EN" "http://www.w3.org/Graphics/SVG/1.1/DTD/svg11.dtd"><svg t="1628423663743" class="icon" viewBox="0 0 1024 1024" version="1.1" xmlns="http://www.w3.org/2000/svg" p-id="829" xmlns:xlink="http://www.w3.org/1999/xlink" width="200" height="200"><defs><style type="text/css"></style></defs><path d="M186.29533584 364.49510029c92.88529365 38.19085664 232.56173584 95.15162285 238.62630499 97.62534317 11.80736191 5.00196006 24.92427744 25.43206377 24.93176044 46.86598037v330.08445263c0 7.68093222-5.25745635 11.77101563-9.05355791 11.77101475-0.85842597 0-1.74357685-0.19349297-2.7046292-0.59010029-96.63222041-39.92908799-227.12468378-94.99020029-228.43103028-95.5418168l-0.08552196-0.03634717-0.08552109-0.03527754c-12.57492041-5.23714482-23.19887373-26.70313184-23.19887461-46.87453212V364.49510029m-39.39243839-58.87538789v402.14517364c0 31.53511758 16.31436416 70.27331396 47.44539053 83.23949706 0 0 130.81103262 55.20543047 228.70470058 95.65513331 5.90421533 2.43951152 11.90250527 3.57588281 17.74792442 3.57588281 25.64800664 0 48.44706592-21.83693818 48.44706504-51.16559238V508.9853542c-0.01389727-35.76631113-21.19552471-71.56576318-49.26379922-83.2672916 0 0.00106875-215.31304599-87.79139825-293.08128135-120.0983502zM834.78088584 364.49510029v343.268717c0 20.17033067-10.62395333 41.63631855-23.19887373 46.87453212l-0.08552198 0.03527754-0.08445322 0.03634717c-1.30741523 0.55161562-131.79880987 55.61165917-228.43209902 95.5418168-0.96105234 0.39660732-1.84513448 0.59010117-2.70355957 0.59010029-3.79610156 0-9.05355791-4.09115215-9.05355791-11.77101475V509.00032109c0.00855176-21.44781386 13.12546729-41.87898633 24.93176045-46.88094726 6.06456914-2.47265068 145.74101133-59.43448652 238.62630498-97.62427354m39.39350713-58.87538789c-77.76823535 32.30695195-293.08128135 120.09941894-293.08128135 120.09941982-28.06827539 11.70152842-49.2509707 47.50097959-49.26379922 83.26729161v330.08445263c0 29.32651494 22.80119766 51.16559151 48.44706592 51.16559151 5.84755752 0 11.8415707-1.13530254 17.74792441-3.57588281 97.89366797-40.45077158 228.70469971-95.6551333 228.70469971-95.65513331 31.13102636-12.9661831 47.44646016-51.7043795 47.44646016-83.23949706V305.6197124h-0.00106963zM510.53864521 172.56266299c15.69219258 0 31.05619541 2.4020956 41.09859932 6.42589805l216.61404698 86.78544784-216.61404698 86.78544698c-10.04347354 4.02380332-25.40747637 6.42589893-41.09859932 6.42589893s-31.05512578-2.4020956-41.09859932-6.42589893L252.8249293 265.77400888l216.61404697-86.78544784c10.04347354-4.02380332 25.40747637-6.42589893 41.09966894-6.42589805m0-39.39350801c-20.17781455 0-40.35455948 3.08413213-55.74956308 9.25132764L146.90182783 265.77400888l307.88618467 123.35352539c15.39500449 6.16826425 35.57281816 9.25239638 55.74956396 9.2523964 20.17781455 0 40.35455948-3.08413213 55.74956309-9.2523964l307.88618467-123.35352539L566.2882083 142.42048262c-15.39500449-6.16826425-35.57281816-9.25132763-55.74956309-9.25132764z" p-id="830"></path></svg>