<?xml version="1.0" standalone="no"?><!DOCTYPE svg PUBLIC "-//W3C//DTD SVG 1.1//EN" "http://www.w3.org/Graphics/SVG/1.1/DTD/svg11.dtd"><svg t="1628423567428" class="icon" viewBox="0 0 1024 1024" version="1.1" xmlns="http://www.w3.org/2000/svg" p-id="1063" xmlns:xlink="http://www.w3.org/1999/xlink" width="200" height="200"><defs><style type="text/css"></style></defs><path d="M514.68712642 895.22380488c-211.65484251 0-383.87522942-172.20875496-383.8752294-383.86359748 0-211.67810796 172.22038691-383.87522942 383.8752294-383.87522942 211.66647523 0 383.86359746 172.19712224 383.86359747 383.87522942C898.55072389 723.02668341 726.36523438 895.22380488 514.68712642 895.22380488zM514.68712642 150.75014338c-198.84736871 0-360.61006403 161.76269531-360.61006402 360.61006402 0 198.82410405 161.76269531 360.59843207 360.61006402 360.59843208 198.83573676 0 360.59843207-161.77432803 360.59843208-360.59843208C875.2855585 312.52447142 713.52286318 150.75014338 514.68712642 150.75014338z" p-id="1064"></path><path d="M717.88508185 813.97021484c-10.51585442-112.03340387-97.23675905-196.53248543-201.69735166-196.53248542-104.42569522 0-191.12333441 84.49908079-201.63918883 196.53248542l-23.17210442-2.18692568c11.65584775-124.04986205 108.31097781-217.61072514 224.81129403-217.61072513 116.54684632 0 213.21360832 93.56086309 224.86945684 217.61072513L717.88508185 813.97021484z" p-id="1065"></path><path d="M513.23305354 555.56402219c-69.6559051 0-126.31821599-56.65067816-126.31821599-126.28331783 0-69.6559051 56.66231012-126.34148065 126.31821599-126.34148065 69.64427239 0 126.30658327 56.68557555 126.30658328 126.34148066C639.55126953 498.9133448 582.88895941 555.56402219 513.23305354 555.56402219zM513.23305354 326.19275639c-56.82516664 0-103.05305059 46.23951668-103.0530506 103.07631525 0 56.8019012 46.23951668 103.01815244 103.0530506 103.01815244 56.81353391 0 103.04141787-46.22788396 103.04141788-103.01815244C616.28610414 372.43227229 570.04658746 326.19275639 513.23305354 326.19275639z" p-id="1066"></path></svg>